<svg width="436" height="541" viewBox="0 0 436 541" fill="none" xmlns="http://www.w3.org/2000/svg">
<path d="M284.476 81.9096L428.978 1.23048C431.705 -0.345845 436.899 -1.66423 435.866 5.67285C434.833 13.0099 422.808 92.8006 416.924 131.779C416.446 133.881 414.169 137.883 408.888 137.081C403.952 135.361 377.175 125.951 364.404 121.461L341.875 157C340.727 157 338.316 156.398 337.857 153.991V115.586C337.809 114.391 338.431 111.258 341.301 108.277C344.171 105.297 389.277 56.3063 411.471 32.1838L321.211 106.271L283.041 92.9439C280.123 91.6542 275.924 87.871 282.467 83.0561L284.476 81.9096Z" fill="white" fill-opacity="0.03"/>
<path d="M60.7543 379.819L370.928 206.641C376.78 203.258 387.93 200.428 385.712 216.177C383.495 231.926 357.683 403.196 345.054 486.863C344.027 491.374 339.14 499.966 327.805 498.244C317.209 494.553 259.733 474.354 232.32 464.716L183.961 541C181.497 541 176.322 539.708 175.337 534.54V452.104C175.234 449.541 176.569 442.815 182.729 436.417C188.889 430.019 285.709 324.861 333.349 273.082L139.607 432.11L57.6742 403.504C51.4112 400.735 42.3965 392.615 56.4421 382.28L60.7543 379.819Z" fill="white" fill-opacity="0.03"/>
<path d="M5.2319 132.258L143.291 55.1756C145.896 53.6696 150.859 52.41 149.872 59.4199C148.885 66.4299 137.396 142.663 131.775 179.903C131.318 181.911 129.143 185.736 124.097 184.969C119.381 183.326 93.7982 174.336 81.5964 170.046L60.0717 204C58.9749 204 56.6717 203.425 56.2329 201.125V164.432C56.1872 163.291 56.7813 160.297 59.5233 157.45C62.2653 154.602 105.36 107.796 126.565 84.7488L40.3294 155.533L3.8609 142.8C1.07321 141.568 -2.93923 137.953 3.31251 133.353L5.2319 132.258Z" fill="white" fill-opacity="0.03"/>
</svg>
