<svg width="121" height="120" viewBox="0 0 121 120" fill="none" xmlns="http://www.w3.org/2000/svg">
<path fill-rule="evenodd" clip-rule="evenodd" d="M30.7462 0.429248C29.5227 0.814891 27.4359 2.97569 27.0608 4.24554C26.3702 6.58283 26.8571 8.44623 28.6188 10.2079C30.3451 11.934 32.4346 12.4974 34.474 11.7864L35.2849 11.5037L38.9985 15.2111L42.7118 18.9182V25.4362V31.9545L41.3375 32.126C39.4704 32.3593 36.7814 33.7479 35.4958 35.1426C34.194 36.5545 33.0688 38.8958 32.8499 40.6465L32.6831 41.9832H29.1552H25.6274L22.9187 39.266C20.2119 36.5511 20.2102 36.5483 20.4924 35.7389C21.7248 32.2035 18.6364 28.0233 14.792 28.0233C13.224 28.0233 11.9614 28.5934 10.6703 29.8844C8.14831 32.4064 8.14831 35.6058 10.6703 38.1278C12.3964 39.8538 14.4861 40.4172 16.5253 39.7062L17.3359 39.4238L20.6168 42.6977L23.8976 45.9718H28.3189H32.7405V47.966V49.9603H26.4064H20.0726L14.8386 54.3016L9.60463 58.6429L8.64613 58.3011C6.45417 57.5196 4.47436 58.0177 2.69322 59.7986C1.40217 61.0896 0.832062 62.3522 0.832062 63.9202C0.832062 67.0091 3.726 69.9031 6.81489 69.9031C9.21849 69.9031 11.8943 67.8903 12.5322 65.6029C12.8361 64.5133 12.8047 62.8358 12.4632 61.926C12.3655 61.666 13.7143 60.3949 16.894 57.7504L21.4653 53.9489H27.1029H32.7405V55.9431V57.9374H29.749H26.7576V59.9317V61.926H29.749H32.7405V63.9202V65.9145H23.7662H14.792V67.9088V69.9031H23.7662H32.7405V71.8973V73.8916L27.1939 73.8976L21.6473 73.9038L17.7051 79.8473L13.7632 85.7909L12.26 85.9271C10.2931 86.1055 8.70695 87.0728 7.69386 88.7111C7.01406 89.8109 6.93953 90.134 6.93953 91.9859C6.93953 93.8705 7.0021 94.1295 7.69436 95.1147C8.10942 95.7052 8.93256 96.5284 9.52311 96.9434C10.5083 97.6357 10.7673 97.6983 12.6519 97.6983C14.5038 97.6983 14.8269 97.6237 15.9267 96.9439C17.6101 95.9032 18.5512 94.3272 18.7057 92.2895C18.8114 90.8973 18.7379 90.548 18.0606 89.2226L17.2963 87.7269L20.5687 82.8035L23.841 77.8802H28.2621H32.6831L32.8499 79.2168C33.0688 80.9675 34.194 83.3088 35.4958 84.7208C36.7814 86.1155 39.4704 87.504 41.3375 87.7374L42.7118 87.9089V94.4271V100.945L38.9985 104.652L35.2849 108.36L34.474 108.077C32.4346 107.366 30.3451 107.929 28.6188 109.655C26.0968 112.177 26.0968 115.377 28.6188 117.899C31.1408 120.421 34.3401 120.421 36.8621 117.899C38.5884 116.172 39.1516 114.083 38.4406 112.043L38.1577 111.232L42.4291 106.955L46.7004 102.679V95.2652V87.8515H48.6947H50.6889V93.8344V99.8172H52.6832H54.6775V93.8344V87.8515H56.6718H58.666L58.6688 96.3895L58.6715 104.928L64.6214 108.65L70.5714 112.373L70.6915 114.054C70.8934 116.875 72.4447 118.876 75.0452 119.667C79.2923 120.96 83.5065 117.034 82.5933 112.636C82.0452 109.996 79.8943 108.113 77.143 107.863C75.911 107.752 75.4476 107.835 74.2393 108.389L72.8014 109.047L67.728 105.874L62.6546 102.702V95.2767V87.8515H64.6489H66.6431V90.8429V93.8344H68.6374H70.6317V90.8429V87.8515H72.626H74.6202V95.8286V103.806H81.8193H89.0181L89.3315 104.562C89.757 105.589 91.5751 107.143 92.7699 107.501C95.5678 108.339 98.5675 107.066 100.004 104.429C100.565 103.399 100.561 100.217 99.9966 99.1763C98.9608 97.2635 96.6517 95.8286 94.6098 95.8286C92.5453 95.8286 90.0332 97.367 89.3315 99.0609L89.0181 99.8172H83.8136H78.6088V93.863V87.9089L79.9831 87.7374C81.8502 87.504 84.5392 86.1155 85.8248 84.7208C87.1266 83.3088 88.2518 80.9675 88.4707 79.2168L88.6375 77.8802H97.1535H105.67L107.378 79.602C109.054 81.2909 109.081 81.339 108.805 82.132C107.573 85.6656 110.662 89.8458 114.506 89.8458C117.595 89.8458 120.489 86.9519 120.489 83.863C120.489 82.295 119.918 81.0324 118.627 79.7413C116.902 78.0155 114.812 77.4519 112.773 78.1623C111.969 78.4428 111.949 78.4296 109.678 76.1681L107.392 73.8916H97.9859H88.5801V71.8973V69.9031H93.5658H98.5515V67.9088V65.9145H93.5658H88.5801V63.9202V61.926H93.8171H99.0543L104.723 59.0996L110.393 56.2732L111.24 56.8565C114.197 58.8909 118.141 57.7926 119.891 54.4474C120.553 53.1806 120.51 50.6466 119.803 49.3014C118.762 47.3236 116.593 45.9718 114.459 45.9718C111.393 45.9718 108.523 48.848 108.523 51.9199C108.523 52.686 108.428 52.7476 103.29 55.3187L98.0574 57.9374H93.3188H88.5801V55.9431V53.9489H91.5716H94.563V51.9546V49.9603H91.5716H88.5801V47.966V45.9718H93.0017H97.423L100.704 42.6977L103.985 39.4238L104.795 39.7062C106.834 40.4172 108.924 39.8538 110.65 38.1278C113.172 35.6058 113.172 32.4064 110.65 29.8844C108.128 27.3624 104.929 27.3624 102.407 29.8844C100.681 31.6105 100.118 33.7002 100.828 35.7389C101.11 36.5483 101.109 36.5511 98.402 39.266L95.6932 41.9832H92.1654H88.6375L88.4707 40.6465C88.2518 38.8958 87.1266 36.5545 85.8248 35.1426C84.5392 33.7479 81.8502 32.3593 79.9831 32.126L78.6088 31.9545V29.426V26.8975L84.3156 21.1946L90.0225 15.4918L90.8342 15.7747C94.3713 17.0077 98.5515 13.9203 98.5515 10.0748C98.5515 6.98592 95.6576 4.09198 92.5687 4.09198C91.0007 4.09198 89.7381 4.6621 88.447 5.95314C86.7205 7.67968 86.1576 9.76893 86.8688 11.8093L87.152 12.6212L80.886 18.8907L74.6202 25.16V28.5859V32.0118H72.626H70.6317V29.0204V26.029H68.6374H66.6431V29.0204V32.0118H64.6489H62.6546V24.8127V17.6139L63.4109 17.3006C65.1048 16.5988 66.6431 14.0868 66.6431 12.0222C66.6431 9.98033 65.2083 7.67121 63.2955 6.63543C62.2286 6.05759 59.0739 6.06781 57.9922 6.65238C55.3942 8.05685 54.133 11.0662 54.9706 13.8622C55.3286 15.057 56.8826 16.875 57.9097 17.3006L58.666 17.6139V24.8127V32.0118H56.6718H54.6775V29.0204V26.029H52.6832H50.6889V29.0204V32.0118H48.6947H46.7004V24.5981V17.1846L42.4291 12.9079L38.1577 8.63145L38.4406 7.82028C39.1516 5.78039 38.5884 3.69088 36.8621 1.96459C35.1079 0.210625 33.0663 -0.301903 30.7462 0.429248ZM34.1227 4.70398C35.3594 5.94043 34.4832 8.08053 32.7405 8.08053C31.7156 8.08053 30.7462 7.11107 30.7462 6.08626C30.7462 5.06145 31.7156 4.09198 32.7405 4.09198C33.2261 4.09198 33.7371 4.31808 34.1227 4.70398ZM93.951 8.69253C95.1877 9.92898 94.3114 12.0691 92.5687 12.0691C91.5439 12.0691 90.5744 11.0996 90.5744 10.0748C90.5744 9.05 91.5439 8.08053 92.5687 8.08053C93.0543 8.08053 93.5653 8.30663 93.951 8.69253ZM62.0426 10.6868C63.2793 11.9233 62.403 14.0634 60.6603 14.0634C60.1747 14.0634 59.6637 13.8373 59.278 13.4514C58.0413 12.2149 58.9176 10.0748 60.6603 10.0748C61.1459 10.0748 61.6569 10.3009 62.0426 10.6868ZM50.6889 20.0462V22.0405H52.6832H54.6775V20.0462V18.0519H52.6832H50.6889V20.0462ZM66.6431 20.0462V22.0405H68.6374H70.6317V20.0462V18.0519H68.6374H66.6431V20.0462ZM28.7519 32.0118V34.0061H30.7462H32.7405V32.0118V30.0176H30.7462H28.7519V32.0118ZM88.5801 32.0118V34.0061H90.5744H92.5687V32.0118V30.0176H90.5744H88.5801V32.0118ZM16.1743 32.6238C16.5602 33.0095 16.7863 33.5205 16.7863 34.0061C16.7863 34.4917 16.5602 35.0027 16.1743 35.3884C15.7886 35.7743 15.2776 36.0004 14.792 36.0004C14.3064 36.0004 13.7953 35.7743 13.4097 35.3884C13.0238 35.0027 12.7977 34.4917 12.7977 34.0061C12.7977 33.5205 13.0238 33.0095 13.4097 32.6238C13.7953 32.2379 14.3064 32.0118 14.792 32.0118C15.2776 32.0118 15.7886 32.2379 16.1743 32.6238ZM107.911 32.6238C109.148 33.8603 108.271 36.0004 106.529 36.0004C105.504 36.0004 104.534 35.0309 104.534 34.0061C104.534 32.9813 105.504 32.0118 106.529 32.0118C107.014 32.0118 107.525 32.2379 107.911 32.6238ZM80.4495 36.3035C81.8188 36.7081 83.8839 38.7732 84.2885 40.1425C84.7237 41.6155 84.7237 78.2478 84.2885 79.7209C83.8839 81.0902 81.8188 83.1553 80.4495 83.5599C78.9765 83.9951 42.3441 83.9951 40.8711 83.5599C39.5018 83.1553 37.4367 81.0902 37.0321 79.7209C36.5969 78.2478 36.5969 41.6155 37.0321 40.1425C37.4073 38.8726 39.4941 36.7118 40.7176 36.3262C42.0226 35.9149 79.0625 35.8937 80.4495 36.3035ZM58.3215 40.2502C56.744 40.6465 54.499 41.9752 53.4091 43.1576C52.8495 43.7648 52.0465 44.9985 51.6252 45.899C50.9801 47.2773 50.8405 47.9224 50.7415 49.978C50.6251 52.3941 50.6164 52.4227 49.8999 52.7194C48.9013 53.1332 47.347 54.9647 46.9935 56.1443C46.5775 57.5331 46.586 74.3191 47.0035 75.7323C47.4081 77.1016 49.4732 79.1667 50.8425 79.5713C51.5634 79.7842 54.4962 79.8744 60.7072 79.8744C70.9705 79.8744 71.1918 79.8385 72.9498 77.8831C73.5426 77.2238 74.1608 76.2394 74.3238 75.6954C74.7351 74.3229 74.7379 57.5151 74.3271 56.1443C73.9736 54.9647 72.4193 53.1332 71.4207 52.7194C70.7032 52.4222 70.6957 52.3973 70.5776 49.9436C70.4706 47.726 70.3637 47.276 69.5515 45.6332C67.893 42.2769 64.8764 40.2731 61.2209 40.0991C60.1585 40.0485 58.8537 40.1166 58.3215 40.2502ZM62.501 44.2806C63.8703 44.6852 65.9354 46.7503 66.34 48.1196C66.5068 48.684 66.6431 49.7776 66.6431 50.5501V51.9546H60.6603H54.6775V50.5501C54.6775 48.3876 55.1259 47.2518 56.5386 45.8359C58.2874 44.0834 60.171 43.5921 62.501 44.2806ZM98.5515 51.9546V53.9489H100.546H102.54V51.9546V49.9603H100.546H98.5515V51.9546ZM115.888 50.5723C117.125 51.8088 116.248 53.9489 114.506 53.9489C113.481 53.9489 112.511 52.9794 112.511 51.9546C112.511 50.9298 113.481 49.9603 114.506 49.9603C114.991 49.9603 115.502 50.1864 115.888 50.5723ZM70.0197 56.5551L70.6317 57.1669V65.9145V74.6621L70.0197 75.2739L69.4079 75.8859H60.6603H51.9127L51.3009 75.2739L50.6889 74.6621V65.9145V57.1669L51.3009 56.5551L51.9127 55.9431H60.6603H69.4079L70.0197 56.5551ZM18.7805 59.9317V61.926H20.7748H22.7691V59.9317V57.9374H20.7748H18.7805V59.9317ZM58.6291 58.2842C55.6063 59.3641 54.0605 62.5198 54.9522 65.7899C55.2444 66.8613 57.5906 69.4045 58.2869 69.4045C58.5982 69.4045 58.666 69.8061 58.666 71.648V73.8916H60.6603H62.6546V71.6782V69.4651L63.4109 69.1517C64.438 68.7262 65.992 66.9081 66.35 65.7133C67.7519 61.0343 63.1978 56.6521 58.6291 58.2842ZM8.19717 62.5379C9.43387 63.7744 8.55763 65.9145 6.81489 65.9145C5.79008 65.9145 4.82061 64.945 4.82061 63.9202C4.82061 62.8954 5.79008 61.926 6.81489 61.926C7.30049 61.926 7.81152 62.1521 8.19717 62.5379ZM62.0426 62.5379C62.4285 62.9236 62.6546 63.4346 62.6546 63.9202C62.6546 64.4058 62.4285 64.9169 62.0426 65.3025C60.8061 66.5392 58.666 65.663 58.666 63.9202C58.666 62.8954 59.6355 61.926 60.6603 61.926C61.1459 61.926 61.6569 62.1521 62.0426 62.5379ZM102.54 67.9088V69.9031H104.534H106.529V67.9088V65.9145H104.534H102.54V67.9088ZM115.888 82.4807C116.274 82.8663 116.5 83.3774 116.5 83.863C116.5 84.3486 116.274 84.8596 115.888 85.2453C115.502 85.6312 114.991 85.8573 114.506 85.8573C114.02 85.8573 113.509 85.6312 113.123 85.2453C112.738 84.8596 112.511 84.3486 112.511 83.863C112.511 83.3774 112.738 82.8663 113.123 82.4807C113.509 82.0948 114.02 81.8687 114.506 81.8687C114.991 81.8687 115.502 82.0948 115.888 82.4807ZM28.7519 87.8515V89.8458H30.7462H32.7405V87.8515V85.8573H30.7462H28.7519V87.8515ZM88.5801 87.8515V89.8458H90.5744H92.5687V87.8515V85.8573H90.5744H88.5801V87.8515ZM14.18 90.4578C15.4167 91.6942 14.5405 93.8344 12.7977 93.8344C11.7729 93.8344 10.8034 92.8649 10.8034 91.8401C10.8034 90.8153 11.7729 89.8458 12.7977 89.8458C13.2833 89.8458 13.7943 90.0719 14.18 90.4578ZM66.6431 99.8172V101.811H68.6374H70.6317V99.8172V97.8229H68.6374H66.6431V99.8172ZM95.9453 100.429C96.3312 100.815 96.5573 101.326 96.5573 101.811C96.5573 102.297 96.3312 102.808 95.9453 103.194C95.5596 103.58 95.0486 103.806 94.563 103.806C94.0774 103.806 93.5663 103.58 93.1807 103.194C92.7948 102.808 92.5687 102.297 92.5687 101.811C92.5687 101.326 92.7948 100.815 93.1807 100.429C93.5663 100.043 94.0774 99.8172 94.563 99.8172C95.0486 99.8172 95.5596 100.043 95.9453 100.429ZM50.6889 105.8V107.794H52.6832H54.6775V105.8V103.806H52.6832H50.6889V105.8ZM34.1227 112.395C35.3594 113.631 34.4832 115.771 32.7405 115.771C31.7156 115.771 30.7462 114.802 30.7462 113.777C30.7462 112.752 31.7156 111.783 32.7405 111.783C33.2261 111.783 33.7371 112.009 34.1227 112.395ZM77.9968 112.395C78.3827 112.78 78.6088 113.291 78.6088 113.777C78.6088 114.263 78.3827 114.774 77.9968 115.159C77.6111 115.545 77.1001 115.771 76.6145 115.771C76.1289 115.771 75.6179 115.545 75.2322 115.159C74.8463 114.774 74.6202 114.263 74.6202 113.777C74.6202 113.291 74.8463 112.78 75.2322 112.395C75.6179 112.009 76.1289 111.783 76.6145 111.783C77.1001 111.783 77.6111 112.009 77.9968 112.395Z" fill="#A28DE9"/>
</svg>
