<svg width="128" height="129" viewBox="0 0 128 129" fill="none" xmlns="http://www.w3.org/2000/svg">
  <path fill-rule="evenodd" clip-rule="evenodd"
    d="M85.7396 0.957503C78.3535 1.84022 72.1633 4.10073 66.9672 7.81257C64.4806 9.58897 60.5397 13.4466 58.6593 15.9447C57.1442 17.9579 54.586 22.1856 54.5818 22.6834C54.578 23.0974 54.1562 23.0812 53.906 22.6575C53.6016 22.1422 52.7044 21.7486 51.8342 21.7486C50.7196 21.7486 49.5933 22.919 49.5933 24.0771C49.5933 25.1608 52.1081 30.8534 52.9677 31.7157C53.9017 32.6525 54.9729 32.481 58.6922 30.7993C61.6046 29.4824 61.979 29.2403 62.3891 28.4094C62.773 27.6312 62.7994 27.347 62.5569 26.6119C62.1805 25.4716 61.4521 24.9893 60.1059 24.9893C58.8057 24.9893 58.8037 25.0025 60.4836 22.207C63.8925 16.5345 68.5412 12.1606 74.1499 9.34891C79.1555 6.83962 83.0967 5.95167 89.2296 5.95167C94.228 5.95167 97.0631 6.42605 101.184 7.95217C105.974 9.72583 109.344 11.9811 113.332 16.0823C119.616 22.5438 122.496 29.8107 122.496 39.1985C122.496 48.5977 119.637 55.8001 113.303 62.3537C108.455 67.3701 102.824 70.5071 96.2679 71.8428C87.2276 73.6845 77.8113 71.8642 70.3558 66.8334C69.3668 66.166 67.3476 64.4794 65.8686 63.0852C62.1221 59.554 59.469 57.6468 55.7008 55.7764C52.1041 53.9913 49.7975 53.1641 46.1697 52.3594C42.7944 51.6106 34.3626 51.5485 31.1463 52.2488C26.6153 53.2354 21.2869 55.2661 20.2177 56.4138C19.4013 57.29 19.4776 58.8545 20.3785 59.7178C21.3332 60.6327 22.4194 60.5873 24.726 59.5363C27.338 58.346 30.0876 57.5186 33.1032 57.0153C36.5358 56.4427 42.7802 56.6135 45.7534 57.3613C52.1301 58.9652 56.6147 61.4127 61.6542 66.0392C65.8248 69.8682 68.3689 71.7291 71.655 73.3552C81.2889 78.122 91.691 78.8429 101.903 75.4516C111.11 72.3942 119.086 65.4536 123.504 56.6536C124.916 53.8404 126.388 49.4525 127.016 46.1784C127.709 42.5698 127.661 35.5078 126.919 31.7877C125.218 23.2702 121.004 15.8946 114.657 10.3306C107.746 4.27299 99.6711 1.15269 90.3513 0.938807C88.2947 0.891692 86.2195 0.900168 85.7396 0.957503ZM82.9695 14.644C82.1225 15.1044 81.832 15.9009 81.5155 18.632C81.3724 19.8657 81.1547 20.9087 81.0319 20.9496C80.9087 20.9907 80.0729 21.4676 79.1744 22.0096C78.2758 22.5515 77.4277 22.995 77.2896 22.995C77.1517 22.995 76.1459 22.6024 75.0543 22.1225C72.7145 21.0937 71.4992 21.0067 70.703 21.8109C69.8652 22.657 64.7997 31.5671 64.7997 32.1948C64.7997 33.2226 65.5042 34.1046 67.3958 35.444L69.2868 36.7832V39.1838V41.5841L67.397 42.9357C65.3471 44.4018 64.6711 45.3488 64.8909 46.4472C65.0742 47.3643 70.1451 56.1473 70.8164 56.7107C71.6116 57.378 72.79 57.2384 75.2056 56.1907L77.41 55.2347L78.6168 56.0498C79.2806 56.4981 80.1387 56.9954 80.5236 57.1547C81.2836 57.4695 81.3798 57.7512 81.6281 60.3876C81.9761 64.0795 82.0721 64.1269 89.2296 64.1269C95.2727 64.1269 95.8994 64.003 96.4179 62.7052C96.571 62.3218 96.8173 60.9984 96.9649 59.7644C97.1127 58.5305 97.3156 57.4915 97.4163 57.4556C97.5168 57.4194 98.3646 56.9428 99.3002 56.3961C100.236 55.8492 101.111 55.402 101.245 55.402C101.379 55.402 102.381 55.7946 103.473 56.2744C105.802 57.2985 106.897 57.378 107.766 56.5861C108.785 55.6565 113.659 46.9255 113.659 46.0286C113.659 45.0041 113.083 44.3215 110.945 42.8131L109.178 41.5667L109.182 39.1985L109.186 36.8303L111.075 35.4592C113.259 33.873 113.659 33.3904 113.659 32.3422C113.659 31.4594 108.771 22.7213 107.768 21.8109C106.896 21.0192 105.802 21.0984 103.473 22.1225C101.167 23.1363 101.109 23.1436 100.236 22.5291C99.8725 22.2726 99.0701 21.8101 98.4531 21.5013C97.8361 21.1922 97.3096 20.9222 97.2829 20.901C97.2563 20.8796 97.1134 19.8557 96.9654 18.6255C96.6343 15.8719 96.3382 15.0972 95.439 14.6322C94.4356 14.1132 83.9278 14.1232 82.9695 14.644ZM92.0742 20.0659C92.1427 20.5114 92.2691 21.4235 92.3548 22.0926C92.6114 24.0966 92.8554 24.3865 95.3121 25.6032C96.5598 26.2212 98.1258 27.1211 98.7919 27.603C100.278 28.6777 100.913 28.6966 103.065 27.7314C103.982 27.3201 104.869 26.9835 105.036 26.9835C105.204 26.9835 105.524 27.3482 105.748 27.7937C105.972 28.2392 106.551 29.2902 107.036 30.1288L107.917 31.6536L106.488 32.6567C103.972 34.4229 104.075 34.1537 104.043 39.0324C104.023 42.1266 104.104 43.4587 104.336 43.8424C104.513 44.1343 105.389 44.9101 106.283 45.5664L107.908 46.76L107.031 48.2764C106.549 49.1105 105.972 50.1578 105.748 50.6032C105.524 51.0487 105.209 51.4134 105.047 51.4134C104.886 51.4134 104.012 51.0769 103.105 50.6656C100.845 49.641 100.234 49.6891 98.3407 51.04C97.4756 51.6575 95.941 52.5427 94.9307 53.0076C93.9201 53.4722 92.9636 54.0708 92.8048 54.3378C92.646 54.6047 92.4428 55.4862 92.3531 56.2966C92.2634 57.1071 92.132 58.0788 92.0609 58.4557L91.9321 59.1412H89.2099C87.2021 59.1412 86.4854 59.0595 86.4797 58.8296C86.4533 57.7567 85.9575 54.8119 85.7326 54.3919C85.585 54.1159 84.5445 53.4588 83.4205 52.9318C82.2967 52.4048 80.7679 51.5111 80.0232 50.9457C78.3672 49.6881 77.6673 49.6457 75.3943 50.6656C74.4774 51.0769 73.6338 51.4134 73.5194 51.4134C73.405 51.4134 72.894 50.7124 72.3837 49.8554C71.8736 48.9986 71.2502 47.9503 70.9984 47.5261L70.5407 46.7548L71.8657 45.8422C74.4757 44.0446 74.3857 44.2781 74.4163 39.2184C74.4338 36.3574 74.3465 34.6555 74.1708 34.4227C74.0212 34.2243 73.1575 33.5038 72.2518 32.8215L70.605 31.5813L71.8081 29.4694C72.4699 28.3077 73.1547 27.2645 73.3302 27.1511C73.5259 27.0244 74.3087 27.2413 75.3551 27.7119C77.6655 28.7512 78.3411 28.7123 80.0128 27.4445C80.7631 26.8756 82.2967 25.9817 83.4205 25.4584C84.5445 24.9352 85.585 24.281 85.7326 24.0051C85.9575 23.585 86.4533 20.6402 86.4797 19.5673C86.4854 19.3375 87.2039 19.2557 89.2183 19.2557H91.949L92.0742 20.0659ZM86.9683 30.7986C84.382 31.532 82.4435 33.2019 81.2831 35.697C80.3533 37.696 80.3608 40.7164 81.3003 42.7373C82.1409 44.5456 83.8757 46.2824 85.6907 47.1332C86.8806 47.6908 87.4542 47.7988 89.2296 47.7988C91.689 47.7988 93.417 47.1474 95.1775 45.557C98.1161 42.9023 98.7605 37.8718 96.5952 34.4947C94.6375 31.442 90.4159 29.8211 86.9683 30.7986ZM90.8796 35.8638C92.038 36.4137 92.7786 37.5338 92.8993 38.9188C93.0354 40.4845 92.384 41.6494 90.9656 42.3768C89.6337 43.0599 88.9292 43.0733 87.5384 42.4422C86.7233 42.0722 86.3558 41.7048 85.9859 40.8896C85.3692 39.5308 85.3694 38.8577 85.9869 37.5824C86.8796 35.7384 89.0261 34.9843 90.8796 35.8638ZM11.4002 62.8551C10.7312 63.4528 10.5916 63.758 10.5916 64.6255C10.5916 67.1168 13.9552 68.0227 15.0862 65.8358C15.7939 64.4669 15.4436 63.1522 14.2 62.5091C13.1158 61.9487 12.3022 62.0491 11.4002 62.8551ZM32.1155 65.498C31.3069 65.9375 30.9703 66.7818 30.7741 68.8633C30.5156 71.6072 30.4685 71.7194 29.329 72.2975C28.7519 72.5904 27.8677 73.0765 27.3642 73.3774L26.4488 73.9248L24.3294 73.0144C21.9958 72.012 20.7529 71.8769 19.9624 72.5403C19.2901 73.1044 14.2202 81.8874 14.0364 82.8063C13.823 83.873 14.3842 84.6507 16.5225 86.2519L18.4762 87.7147V90.0472V92.3795L16.4936 93.8259C14.4193 95.3391 13.767 96.2863 14.0424 97.3839C14.2842 98.3472 19.405 107.081 20.0085 107.559C20.8359 108.215 22.0866 108.065 24.3972 107.03L26.4977 106.09L28.2362 107.162C29.1924 107.751 30.0789 108.268 30.2063 108.311C30.3336 108.353 30.5767 109.551 30.7467 110.972C31.0359 113.39 31.1069 113.602 31.8528 114.269L32.65 114.981H38.2671C44.4257 114.981 45.0372 114.862 45.5712 113.559C45.8219 112.948 46.3235 109.819 46.3449 108.733C46.3492 108.518 46.7734 108.142 47.2875 107.897C47.8017 107.652 48.686 107.139 49.2528 106.757L50.2836 106.063L52.4604 107.032C54.9702 108.149 56.0274 108.246 56.9116 107.44C57.8629 106.573 62.8054 97.782 62.8054 96.9574C62.8054 95.8683 62.4527 95.4211 60.3078 93.7883L58.3183 92.2736L58.3253 89.9789L58.3323 87.6843L60.2206 86.3132C62.4073 84.7255 62.8054 84.2447 62.8054 83.1914C62.8054 82.2913 57.9272 73.5576 56.9255 72.6649C56.0373 71.8732 55.0509 71.9517 52.4995 73.0166C50.3532 73.9123 50.2779 73.9253 49.6327 73.509C49.2683 73.2737 48.3933 72.7878 47.6883 72.4293C46.2736 71.7096 46.4352 72.1225 45.9558 67.9983C45.8214 66.8409 45.629 66.3563 45.0898 65.8171L44.3968 65.124L38.5817 65.134C34.046 65.1417 32.6233 65.2218 32.1155 65.498ZM41.2054 70.546C41.2722 70.7858 41.4019 71.7488 41.4936 72.6856C41.6888 74.6794 42.313 75.5297 44.0702 76.1955C44.666 76.4214 45.7771 77.0234 46.5394 77.5334C47.3017 78.0435 48.2166 78.6564 48.5725 78.8958C49.4879 79.511 50.3026 79.4417 52.2108 78.5854C53.1277 78.1741 54.0074 77.8383 54.166 77.839C54.3245 77.84 54.6349 78.1579 54.8555 78.5458C55.0759 78.9334 55.6652 79.9819 56.165 80.8756L57.0736 82.5004L55.5894 83.5414C53.1317 85.2657 53.198 85.0815 53.2169 90.1133C53.2292 93.3931 53.3174 94.5949 53.5682 94.8971C53.7524 95.1189 54.6119 95.8209 55.4785 96.4571L57.0539 97.614L56.1772 99.1304C55.6951 99.9645 55.1175 101.012 54.8936 101.457C54.6698 101.903 54.3861 102.267 54.2629 102.267C54.14 102.267 53.2725 101.931 52.3355 101.52C49.9969 100.493 49.2658 100.537 47.5924 101.806C46.842 102.375 45.3259 103.261 44.2233 103.775C42.0316 104.795 41.7601 105.133 41.5008 107.158C41.4151 107.827 41.2887 108.739 41.2201 109.185L41.095 109.995H38.3643C36.3499 109.995 35.6314 109.913 35.6257 109.684C35.5988 108.597 35.102 105.663 34.8721 105.234C34.7208 104.951 33.6803 104.292 32.56 103.771C31.4397 103.249 29.9139 102.361 29.1692 101.797C27.5023 100.534 26.8374 100.501 24.4391 101.561C23.3686 102.033 22.5644 102.258 22.4323 102.122C22.3109 101.996 21.6518 100.92 20.9675 99.7307L19.7234 97.5681L20.7103 96.9148C21.2532 96.5556 22.1237 95.8765 22.6447 95.4059L23.5922 94.5498L23.5501 90.12C23.5269 87.6835 23.426 85.5098 23.3258 85.2897C23.2256 85.0695 22.4201 84.369 21.5359 83.7331C20.6519 83.0969 19.9285 82.4673 19.9285 82.3336C19.9285 81.945 22.4186 77.8375 22.6542 77.8375C22.7716 77.8375 23.6586 78.1741 24.625 78.5854C26.9691 79.5828 27.5105 79.5486 29.1588 78.2985C29.9091 77.7296 31.4427 76.8357 32.5665 76.3124C33.6905 75.7892 34.731 75.1351 34.8786 74.8591C35.1035 74.4391 35.5993 71.4943 35.6257 70.4213C35.6314 70.1915 36.3489 70.1097 38.3589 70.1097C40.7418 70.1097 41.0992 70.1646 41.2054 70.546ZM5.27284 71.5167C4.63218 71.837 4.24379 72.369 3.49794 73.9475C-2.097 85.7902 -0.880744 100.396 6.64216 111.702C8.4056 114.352 12.6377 118.765 15.415 120.85C24.7133 127.828 36.9257 130.131 48.3469 127.061C58.7154 124.274 67.5301 117.347 72.2473 108.28L73.309 106.24L74.0591 106.871C75.42 108.016 77.2071 107.548 77.9118 105.861C78.3104 104.908 78.3366 105.001 76.4545 100.674C75.1398 97.6517 74.4126 96.7867 73.1836 96.7842C72.4241 96.7827 65.9591 99.7402 65.4852 100.306C64.8169 101.104 64.9209 102.576 65.7123 103.516C66.3136 104.231 66.4876 104.297 67.5703 104.221L68.7648 104.137L67.7565 106.007C66.3066 108.694 64.7404 110.804 62.3143 113.337C56.7842 119.111 50.062 122.342 41.7409 123.225C35.7391 123.863 28.6634 122.592 23.2939 119.911C17.1059 116.821 10.9593 110.473 8.13637 104.254C6.1406 99.8578 5.26437 96.2447 5.05522 91.5482C4.81166 86.0851 5.63904 81.6289 7.86266 76.4226C8.88397 74.0317 8.95776 73.7249 8.69975 72.9434C8.21739 71.4818 6.64864 70.8287 5.27284 71.5167ZM35.954 81.6745C33.3739 82.5171 31.5589 84.1195 30.4306 86.551C29.5624 88.4227 29.5474 91.2351 30.3942 93.4101C32.1607 97.9463 37.9318 100.029 42.4194 97.7499C48.7296 94.5453 48.5725 85.3467 42.1537 82.1871C40.4633 81.3549 37.6457 81.1219 35.954 81.6745ZM40.5752 86.9815C42.7291 88.56 42.5389 91.8969 40.2193 93.2269C38.5855 94.1634 36.8312 93.8224 35.5694 92.3227C34.127 90.6084 34.5797 87.9909 36.5124 86.8679C37.711 86.1716 39.5397 86.2227 40.5752 86.9815Z"
    fill="#A28DE9" />
</svg>