<svg width="41" height="40" viewBox="0 0 41 40" fill="none" xmlns="http://www.w3.org/2000/svg">
<path fill-rule="evenodd" clip-rule="evenodd" d="M18.1072 0.0485592C11.8417 0.699679 6.35966 4.10172 3.02391 9.40905C-0.843594 15.5626 -1.01461 23.5813 2.58772 29.8642C4.48378 33.171 7.26499 35.8901 10.5477 37.6461C13.3408 39.1401 16.4242 39.9641 19.3195 39.9904L20.3761 40L20.3961 32.2318L20.4161 24.4636H18.2633H16.1105V21.9603V19.4569L18.2433 19.4361L20.3761 19.4153L20.4204 16.7933C20.4607 14.4133 20.4807 14.1134 20.6373 13.5451C21.2333 11.3826 22.6714 9.94394 24.8375 9.34307C25.4009 9.18677 25.6481 9.16908 27.3029 9.16681C28.3146 9.1654 29.4856 9.1935 29.9054 9.22919L30.6685 9.29408V11.5503V13.8066L28.8096 13.8327C26.9615 13.8586 26.9484 13.8601 26.5467 14.0715C25.6843 14.5257 25.581 14.8894 25.581 17.471V19.4544H28.0465C29.4025 19.4544 30.5118 19.4809 30.5117 19.5131C30.5115 19.5454 30.3706 20.6439 30.1986 21.9541C30.0265 23.2643 29.8858 24.365 29.8858 24.4C29.8858 24.435 28.9172 24.4636 27.7334 24.4636H25.581V31.86C25.581 35.9281 25.5947 39.2564 25.6115 39.2564C25.7607 39.2564 27.6237 38.5519 28.329 38.2288C30.683 37.1502 32.5108 35.8514 34.3876 33.9239C36.0205 32.2469 37.0341 30.7971 38.074 28.651C38.9984 26.743 39.6291 24.6155 39.9185 22.4286C40.0473 21.4552 40.0473 18.4427 39.9186 17.5368C39.2606 12.9088 37.3495 9.01521 34.1803 5.84594C31.0759 2.74148 27.2063 0.805498 22.8025 0.15344C21.8424 0.0112249 19.0635 -0.0507641 18.1072 0.0485592Z" fill="white"/>
</svg>
