<svg width="41" height="40" viewBox="0 0 41 40" fill="none" xmlns="http://www.w3.org/2000/svg">
<path fill-rule="evenodd" clip-rule="evenodd" d="M18.1127 0.0485653C11.8502 0.699375 6.36164 4.10544 3.02751 9.41023C-1.69974 16.9316 -0.81746 26.8655 5.15912 33.4092C8.46671 37.0308 12.6033 39.1959 17.5639 39.9021C18.49 40.0339 21.5677 40.0323 22.5346 39.8994C27.0651 39.2769 31.1226 37.2688 34.2085 34.1218C35.2213 33.089 35.437 32.842 36.1088 31.9467C38.1106 29.2784 39.4213 26.0256 39.927 22.4706C40.058 21.5495 40.058 18.4596 39.9269 17.539C39.5896 15.1691 38.9762 13.1499 37.9921 11.1695C36.9493 9.07136 35.8793 7.57554 34.2138 5.88777C31.1242 2.75685 27.2558 0.81194 22.8086 0.153459C21.8483 0.0112263 19.0691 -0.0507704 18.1127 0.0485653ZM24.7521 8.57625C27.0021 8.72193 28.3178 9.21477 29.5212 10.3626C30.7438 11.5288 31.3079 12.9614 31.4582 15.2824C31.5573 16.8117 31.5571 23.1575 31.458 24.7111C31.3086 27.0542 30.7325 28.503 29.479 29.6886C28.3121 30.7922 26.963 31.2902 24.7521 31.4333C23.2501 31.5306 16.8093 31.5306 15.3073 31.4333C13.0572 31.2877 11.7415 30.7948 10.5381 29.647C9.31549 28.4807 8.75141 27.0482 8.60112 24.7272C8.5028 23.2093 8.50335 16.6818 8.60198 15.2377C8.75846 12.9455 9.32449 11.5202 10.5381 10.3626C11.6927 9.26135 13.0805 8.71833 15.0882 8.5822C16.4115 8.49249 23.3925 8.48819 24.7521 8.57625ZM17.1725 10.6201C14.8209 10.6625 14.4413 10.6869 13.9126 10.8301C12.2475 11.281 11.3022 12.2268 10.8563 13.8878C10.7145 14.4162 10.69 14.8083 10.6464 17.2455C10.6193 18.7631 10.6193 21.2465 10.6464 22.7641C10.69 25.2013 10.7145 25.5933 10.8563 26.1218C11.3024 27.7834 12.251 28.7321 13.9126 29.1781C14.4411 29.32 14.8332 29.3445 17.2703 29.3881C18.788 29.4152 21.2714 29.4152 22.789 29.3881C25.2462 29.3442 25.6153 29.3207 26.16 29.1747C27.7811 28.74 28.7628 27.7586 29.2004 26.1351C29.3477 25.5886 29.3704 25.2296 29.4138 22.7641C29.4404 21.2465 29.4404 18.7631 29.4138 17.2455C29.3708 14.7997 29.347 14.4181 29.2039 13.8878C28.7546 12.2231 27.8026 11.272 26.1467 10.8337C25.5363 10.6722 25.3747 10.6646 20.969 10.5911C20.3447 10.5807 18.6363 10.5937 17.1725 10.6201ZM26.6587 12.5733C26.9586 12.6866 27.3063 13.0244 27.4366 13.329C27.8149 14.213 27.1397 15.2298 26.1745 15.2298C25.4369 15.2298 24.8047 14.6011 24.8047 13.8675C24.8047 12.9196 25.7777 12.2404 26.6587 12.5733ZM21.9288 14.4232C22.8754 14.7553 23.4011 15.086 24.144 15.8169C24.8642 16.5254 25.3144 17.2317 25.6408 18.1652C25.8442 18.747 25.8598 18.8777 25.8598 20.0048C25.8598 21.1319 25.8442 21.2626 25.6408 21.8443C25.3253 22.7467 24.8631 23.4819 24.1849 24.1601C23.5067 24.8383 22.7716 25.3004 21.8692 25.616C21.2874 25.8193 21.1568 25.8349 20.0297 25.8349C18.9025 25.8349 18.7719 25.8193 18.1901 25.616C17.2566 25.2895 16.5502 24.8394 15.8417 24.1191C15.1145 23.3799 14.7842 22.8568 14.4433 21.9039C14.2077 21.2454 14.198 21.1697 14.2005 20.0048C14.2028 18.8988 14.2217 18.7361 14.4138 18.1652C14.8218 16.9523 15.6924 15.8101 16.7393 15.1141C17.8867 14.3513 18.706 14.1241 20.1862 14.1583C21.1291 14.1801 21.317 14.2086 21.9288 14.4232ZM19.1064 16.291C17.0484 16.8449 15.795 18.9098 16.312 20.8947C16.6864 22.3319 17.7045 23.3486 19.1453 23.7239C21.8357 24.4246 24.4495 21.8108 23.7488 19.1205C23.2033 17.0264 21.1113 15.7514 19.1064 16.291Z" fill="white"/>
</svg>
