<svg width="158" height="128" viewBox="0 0 158 128" fill="none" xmlns="http://www.w3.org/2000/svg">
<path fill-rule="evenodd" clip-rule="evenodd" d="M41.8995 0.0883849C25.5272 1.43039 11.3358 11.2022 4.32343 25.9621C-0.798195 36.7423 -1.39768 49.3906 2.6758 60.722C7.51683 74.1887 19.15 85.0381 32.8926 88.9027C35.2604 89.5687 38.1526 90.15 40.3492 90.4016C42.3782 90.6341 49.2835 90.6538 50.5242 90.4306L51.3978 90.2735L51.5535 90.7507C51.6392 91.0131 52.4776 93.3883 53.4164 96.0289C54.3553 98.6696 56.9727 106.057 59.233 112.446C61.4931 118.835 63.4899 124.453 63.6702 124.932C64.3475 126.73 66.092 127.838 68.4597 127.973C69.699 128.043 69.935 128.006 71.4631 127.495C72.3753 127.19 73.413 126.757 73.7694 126.532C75.4167 125.493 76.5687 123.716 76.6749 122.049C76.7324 121.145 76.5227 120.49 71.8161 106.863C69.1105 99.0303 66.426 91.2197 65.85 89.5061L64.803 86.3908L65.5984 86.0607C66.0358 85.8792 67.2657 85.2354 68.3315 84.63C81.0743 77.3918 89.1016 64.7708 90.5094 49.7606C90.7738 46.9415 90.6207 41.166 90.2116 38.5249C87.0886 18.364 71.1812 2.89847 50.9093 0.31435C48.5839 0.0179159 44.1236 -0.0940599 41.8995 0.0883849ZM98.1355 44.1093C90.6962 65.0008 84.6094 82.1452 84.6094 82.208C84.6094 82.2709 88.3263 82.3223 92.8692 82.3223H101.129L103.605 74.5012L106.081 66.6803L120.891 66.6799L135.702 66.6798L138.259 74.4623L140.816 82.2449L149.077 82.285C156.902 82.3229 157.334 82.3107 157.249 82.0527C157.199 81.9028 151.029 64.7748 143.537 43.9903L129.914 6.20044L120.788 6.16265L111.662 6.1247L98.1355 44.1093ZM50.5067 12.093C64.2726 14.0112 75.6358 24.025 79.0991 37.2904C79.93 40.4731 80.177 42.4551 80.1753 45.9263C80.1728 51.1571 79.2135 55.5034 77.0065 60.2834C75.087 64.4407 71.6223 68.8851 67.8379 72.0449C64.239 75.0496 59.206 77.6313 54.6117 78.8291C42.3011 82.0384 29.1491 78.3624 20.5259 69.302C15.8218 64.3596 12.8662 58.5618 11.5698 51.7342C11.1124 49.3248 10.9998 44.2521 11.3454 41.6265C12.9764 29.237 21.0062 18.9401 32.6988 14.2447C38.267 12.0086 44.4982 11.2558 50.5067 12.093ZM57.3319 21.1208C56.9668 21.4302 53.759 29.928 53.759 30.5856C53.759 31.1048 54.3709 31.6777 54.9254 31.6777C55.6494 31.6777 55.9122 31.2059 57.316 27.386C58.0739 25.3237 58.7388 23.564 58.7935 23.4754C58.8563 23.3739 59.8823 23.3143 61.5626 23.3143C64.6684 23.3143 64.921 23.233 64.921 22.2325C64.921 21.584 64.6377 21.1877 64.0962 21.0781C63.9103 21.0404 62.3807 20.9768 60.6971 20.9363C57.9992 20.8719 57.5998 20.8937 57.3319 21.1208ZM126 37.1758C128.754 45.6088 131.098 52.8048 131.21 53.1668L131.413 53.825H120.878C113.159 53.825 110.344 53.7783 110.344 53.6503C110.344 53.5541 112.615 46.5323 115.39 38.0465C118.166 29.5605 120.51 22.3844 120.6 22.0998C120.69 21.8151 120.815 21.6409 120.878 21.7126C120.941 21.7843 123.245 28.7427 126 37.1758ZM40.5042 24.4051C35.6344 25.1603 31.3269 28.5636 29.7068 32.9362C28.866 35.205 28.9236 38.7025 29.8395 41.002C30.1171 41.6991 30.9023 42.1221 32.3433 42.3507C34.9025 42.7569 38.8967 41.5173 43.1715 38.9902C47.4917 36.4362 50.3041 33.702 51.2735 31.1136C51.6967 29.9836 51.6778 29.2673 51.2068 28.5885C50.6729 27.8189 48.7561 26.2435 47.544 25.5778C45.6984 24.5643 42.6994 24.0647 40.5042 24.4051ZM44.4574 26.9095C45.5519 27.1664 47.4455 28.2132 48.4073 29.0934L49.2851 29.8966L48.8115 30.8354C48.551 31.3518 47.9449 32.2083 47.4645 32.7386C44.8609 35.6129 39.062 38.9627 35.2062 39.8197C33.8712 40.1164 32.1094 40.0692 31.9002 39.7311C31.6806 39.3761 31.4351 37.6907 31.4351 36.5374C31.4351 33.2481 33.4662 30.0463 36.7061 28.2276C39.3517 26.7427 41.8996 26.3093 44.4574 26.9095ZM63.3707 27.4522C62.9589 27.6053 57.0989 31.5395 56.8983 31.7975C56.6081 32.1706 56.6644 32.8152 57.0206 33.1972C57.6432 33.8648 58.0991 33.6918 61.2784 31.5809C64.6983 29.3101 64.9227 29.1258 64.916 28.5919C64.9062 27.8 64.0778 27.189 63.3707 27.4522ZM63.2036 32.2268C60.1827 34.4848 59.8942 34.8754 60.5915 35.761C61.165 36.4894 61.6762 36.3362 63.6028 34.8588L65.3074 33.5515L65.6956 33.9052C66.0331 34.2131 68.346 36.2169 71.4815 38.9181C72.2568 39.586 72.5289 39.7312 73.0051 39.7312C73.691 39.7312 74.0675 39.312 74.0675 38.5485C74.0675 38.0948 73.757 37.7869 70.3143 34.8271C65.8981 31.0303 65.7361 30.9033 65.3051 30.9033C65.1231 30.9033 64.1774 31.4989 63.2036 32.2268ZM51.5761 33.3189C49.9757 35.233 46.2142 38.3861 43.7544 39.8756C41.5089 41.2351 36.1793 43.2477 33.6844 43.6783C31.7947 44.0044 31.6576 44.1522 31.7006 45.8157C31.8264 50.6798 32.8347 55.5231 34.4509 59.0266C35.6358 61.5955 37.5869 63.9707 39.5044 65.1786C44.3962 68.2598 51.4004 66.9832 59.4175 61.549C65.2161 57.6187 68.1215 52.7304 67.415 48.0926C66.8822 44.5936 65.0203 41.3942 61.5359 37.9893C58.7824 35.299 54.1672 31.9874 53.171 31.9874C52.7557 31.9874 52.5357 32.1709 51.5761 33.3189ZM55.3597 35.9214C60.9785 39.8511 64.3577 44.1029 65.0306 48.0893C65.2505 49.3928 65.2504 49.6384 65.0289 50.762C64.5573 53.1529 63.336 55.143 61.011 57.3085C59.4147 58.7953 58.3092 59.5911 55.8402 61.0305C48.6896 65.1995 43.2363 65.6099 39.5286 62.2579C37.2749 60.2203 35.683 56.8315 34.6876 51.9516C34.3518 50.3048 33.9777 46.5464 34.1143 46.1907C34.161 46.0694 34.4715 45.9266 34.8043 45.8735C35.9114 45.6966 39.3776 44.5128 41.5604 43.5658C43.3051 42.8091 43.742 42.6722 43.8559 42.8461C43.9333 42.9644 44.8434 44.5247 45.8784 46.3135C50.2256 53.8275 52.5724 57.7923 52.8366 58.0693C53.2217 58.473 54.0627 58.4355 54.4166 57.9988C54.8879 57.4174 54.7445 56.8821 53.5814 54.88C52.9719 53.8312 51.3549 51.0566 49.9877 48.7141C46.8918 43.4097 45.8526 41.5814 45.8526 41.4386C45.8526 41.3774 46.7072 40.6943 47.7517 39.9207C49.855 38.3629 52.0655 36.4427 52.9175 35.4334C53.2231 35.0715 53.5288 34.7752 53.597 34.7752C53.6651 34.7752 54.4583 35.2909 55.3597 35.9214ZM20.0042 42.8675C19.5221 43.3877 16.8626 48.451 16.8626 48.8487C16.8626 49.3392 17.5331 49.9531 18.0687 49.9531C18.6834 49.9531 18.9702 49.5896 20.2678 47.1653C20.8832 46.0154 21.4083 45.0525 21.4345 45.0255C21.4609 44.9986 23.3455 45.3028 25.6229 45.7014L29.7635 46.4263L30.1729 46.1221C30.6985 45.7318 30.8231 44.7279 30.3941 44.3401C30.2021 44.1663 28.68 43.8392 25.5674 43.3027C23.0671 42.8717 20.8651 42.519 20.6743 42.519C20.4834 42.519 20.1819 42.6758 20.0042 42.8675ZM26.3968 49.1185C24.6062 50.0164 22.9778 50.9313 22.7781 51.1517C22.0841 51.9174 22.7544 53.1779 23.7578 52.9938C24.0156 52.9464 25.6914 52.1558 27.482 51.2369C31.0375 49.412 31.3437 49.1507 30.9736 48.258C30.8039 47.8486 30.2492 47.4686 29.8388 47.4805C29.7362 47.4834 28.1873 48.2205 26.3968 49.1185ZM27.6612 52.9709C26.3954 53.514 25.2198 54.0849 25.0487 54.2396C24.6344 54.6141 24.6995 55.1418 25.8639 60.8496C26.6909 64.903 26.8251 65.3988 27.1807 65.7118C27.6728 66.1447 28.0213 66.1518 28.5462 65.7392C28.8549 65.4967 28.9549 65.2791 28.9553 64.8487C28.9558 64.5355 28.5658 62.3725 28.0886 60.0419C27.6114 57.7115 27.2798 55.7528 27.3516 55.689C27.4232 55.6253 28.2842 55.2434 29.2648 54.8401C30.2453 54.4369 31.1696 53.9661 31.3189 53.794C31.6793 53.378 31.6615 52.8733 31.2688 52.3746C30.7909 51.7673 30.2624 51.8548 27.6612 52.9709Z" fill="#A28DE9"/>
</svg>
