<svg width="40" height="40" viewBox="0 0 40 40" fill="none" xmlns="http://www.w3.org/2000/svg">
<path fill-rule="evenodd" clip-rule="evenodd" d="M40 20C40 31.0457 31.0457 40 20 40C8.9543 40 0 31.0457 0 20C0 8.9543 8.9543 0 20 0C31.0457 0 40 8.9543 40 20ZM20.6994 14.7543C18.751 15.5702 14.8709 17.2522 9.04246 19.7834C8.10991 20.1664 7.61032 20.5328 7.56036 20.8991C7.48662 21.5186 8.26201 21.7592 9.30802 22.0838C9.443 22.1257 9.58248 22.169 9.72523 22.2147C10.7577 22.5478 12.1232 22.9308 12.8393 22.9474C13.4888 22.9641 14.2048 22.6976 15.0042 22.1481C20.4496 18.4678 23.2473 16.6027 23.4305 16.5694C23.5637 16.5361 23.7302 16.5028 23.8468 16.6027C23.9634 16.7026 23.9634 16.9025 23.9467 16.9524C23.8673 17.2835 20.6186 20.2994 19.1403 21.6718C18.7594 22.0254 18.496 22.2699 18.4346 22.3313C18.2785 22.492 18.1194 22.6443 17.9665 22.7907C17.0106 23.7056 16.2933 24.3922 18.0017 25.512C18.7783 26.0247 19.4047 26.4521 20.0216 26.8729C20.7671 27.3816 21.4987 27.8807 22.4646 28.5095C22.6922 28.6589 22.91 28.8139 23.1226 28.9651C23.9522 29.5552 24.7007 30.0877 25.6286 30.0082C26.1615 29.9582 26.7111 29.4587 26.9942 27.9599C27.6603 24.4295 28.9592 16.7526 29.2589 13.5886C29.2923 13.3221 29.2589 12.9724 29.2256 12.8059C29.1923 12.6393 29.1424 12.4229 28.9425 12.2563C28.6928 12.0565 28.3264 12.0232 28.1599 12.0232C27.4105 12.0398 26.2448 12.4395 20.6994 14.7543Z" fill="white"/>
</svg>
