<svg width="41" height="40" viewBox="0 0 41 40" fill="none" xmlns="http://www.w3.org/2000/svg">
<path fill-rule="evenodd" clip-rule="evenodd" d="M18.1123 0.0485653C11.8498 0.699375 6.36125 4.10544 3.02712 9.41023C-1.69967 16.9309 -0.817229 26.8661 5.15873 33.4092C8.46632 37.0308 12.6029 39.1959 17.5635 39.9021C18.4896 40.0339 21.5673 40.0323 22.5342 39.8994C27.0647 39.2769 31.1222 37.2688 34.2081 34.1218C35.2209 33.089 35.4366 32.842 36.1084 31.9467C38.1103 29.2784 39.4209 26.0256 39.9266 22.4706C40.0576 21.5495 40.0576 18.4596 39.9266 17.539C39.5892 15.1691 38.9758 13.1499 37.9917 11.1695C36.9489 9.07136 35.8789 7.57554 34.2134 5.88777C31.1238 2.75685 27.2554 0.81194 22.8082 0.153459C21.8479 0.0112263 19.0687 -0.0507704 18.1123 0.0485653ZM25.7076 11.1998C26.3494 11.3633 27.0521 11.7295 27.5356 12.1524L27.9415 12.5076L28.4669 12.3758C29.1013 12.2168 30.0421 11.8485 30.5068 11.5771L30.8472 11.3784L30.7924 11.5624C30.6076 12.1834 29.8666 13.1913 29.2912 13.6044C29.0987 13.7427 28.9801 13.8689 29.0277 13.8848C29.1573 13.928 30.2523 13.6716 30.8288 13.4631C31.1071 13.3624 31.3492 13.2945 31.3668 13.3121C31.4702 13.4155 29.9074 15.0894 29.3924 15.4269C29.222 15.5385 29.2089 15.6087 29.1628 16.6595C29.0752 18.6557 28.5923 20.4512 27.6523 22.2749C26.9771 23.5849 26.2651 24.5678 25.2722 25.5608C23.4703 27.3626 21.3202 28.5039 18.7421 29.027C17.9935 29.1788 17.6388 29.2022 16.1153 29.1995C14.585 29.1968 14.2463 29.1731 13.5321 29.0187C12.3644 28.7661 11.4426 28.4452 10.3618 27.9149C8.96143 27.2276 8.96637 27.2465 10.1843 27.2403C11.8103 27.2322 12.9737 26.9498 14.4031 26.2163C14.7746 26.0258 15.2471 25.7499 15.4531 25.6034C15.8026 25.355 15.8151 25.3347 15.6388 25.3018C15.535 25.2823 15.2469 25.2291 14.9988 25.1836C13.6034 24.9274 12.2369 23.7983 11.7151 22.4706L11.5921 22.1575L12.4251 22.1561C13.5801 22.1543 13.7149 22.0833 13.0221 21.8411C11.3559 21.2589 10.203 19.7714 9.96669 17.899C9.91722 17.5068 9.92395 17.4806 10.0593 17.5371C10.5379 17.7367 11.2731 17.958 11.5886 17.9974L11.9543 18.0431L11.3917 17.478C10.2173 16.2983 9.75573 14.7115 10.1279 13.1334C10.218 12.7509 10.4732 12.1067 10.5914 11.9635C10.5994 11.9538 11.0442 12.3779 11.5798 12.906C13.3375 14.639 15.3271 15.7575 17.72 16.3578C18.1719 16.4711 20.0337 16.741 20.0719 16.6985C20.082 16.6873 20.0557 16.4516 20.0132 16.175C19.9277 15.6178 20.0156 14.8058 20.2312 14.1608C20.6917 12.7837 21.8936 11.6561 23.3561 11.2292C23.952 11.0553 25.0847 11.0412 25.7076 11.1998Z" fill="white"/>
</svg>
